<svg width="40.000000" height="40.000000" viewBox="0 0 40 40" fill="none" xmlns="http://www.w3.org/2000/svg" xmlns:xlink="http://www.w3.org/1999/xlink">
	<desc>
			Created with Pixso.
	</desc>
	<defs>
		<clipPath id="clip13_2151">
			<rect id="Frame" rx="0.000000" width="19.000000" height="19.000000" transform="translate(10.500000 10.500000)" fill="white" fill-opacity="0"/>
		</clipPath>
	</defs>
	<circle id="Ellipse 1" cx="20.000000" cy="20.000000" r="20.000000" fill="#FFFFFF" fill-opacity="1.000000"/>
	<circle id="Ellipse 1" cx="20.000000" cy="20.000000" r="19.500000" stroke="#0B0B0B" stroke-opacity="0.100000" stroke-width="1.000000"/>
	<rect id="Frame" rx="0.000000" width="19.000000" height="19.000000" transform="translate(10.500000 10.500000)" fill="#FFFFFF" fill-opacity="0"/>
	<g clip-path="url(#clip13_2151)">
		<path id="Vector" d="M13.82 27.01C14.13 27.32 14.55 27.5 15 27.5C15.44 27.5 15.86 27.32 16.17 27.01C16.49 26.69 16.66 26.27 16.66 25.83C16.66 25.39 16.49 24.96 16.17 24.65C15.86 24.34 15.44 24.16 15 24.16C14.55 24.16 14.13 24.34 13.82 24.65C13.5 24.96 13.33 25.39 13.33 25.83C13.33 26.27 13.5 26.69 13.82 27.01Z" stroke="#3A3A3A" stroke-opacity="1.000000" stroke-width="1.500000" stroke-linejoin="round"/>
		<path id="Vector" d="M22.98 27.01C23.3 27.32 23.72 27.5 24.16 27.5C24.6 27.5 25.03 27.32 25.34 27.01C25.65 26.69 25.83 26.27 25.83 25.83C25.83 25.39 25.65 24.96 25.34 24.65C25.03 24.34 24.6 24.16 24.16 24.16C23.72 24.16 23.3 24.34 22.98 24.65C22.67 24.96 22.5 25.39 22.5 25.83C22.5 26.27 22.67 26.69 22.98 27.01Z" stroke="#3A3A3A" stroke-opacity="1.000000" stroke-width="1.500000" stroke-linejoin="round"/>
		<path id="Vector" d="M24.16 24.16L15 24.16L15 12.5L13.33 12.5" stroke="#3A3A3A" stroke-opacity="1.000000" stroke-width="1.500000" stroke-linejoin="round" stroke-linecap="round"/>
		<path id="Vector" d="M15 14.16L26.66 15L25.83 20.83L15 20.83" stroke="#3A3A3A" stroke-opacity="1.000000" stroke-width="1.500000" stroke-linejoin="round" stroke-linecap="round"/>
	</g>
</svg>
