<svg width="72.000000" height="72.000000" viewBox="0 0 72 72" fill="none" xmlns="http://www.w3.org/2000/svg" xmlns:xlink="http://www.w3.org/1999/xlink">
	<desc>
			Created with Pixso.
	</desc>
	<defs>
		<clipPath id="clip21_545">
			<rect id="success 1" rx="0.000000" width="71.000000" height="71.000000" transform="translate(0.500000 0.500000)" fill="white" fill-opacity="0"/>
		</clipPath>
	</defs>
	<rect id="success 1" rx="0.000000" width="71.000000" height="71.000000" transform="translate(0.500000 0.500000)" fill="#FFFFFF" fill-opacity="0"/>
	<g clip-path="url(#clip21_545)">
		<path id="Vector" d="M68.17 41.96L68.15 41.97C65.68 43.86 64.63 47.08 65.51 50.06L65.52 50.08C66.92 54.82 63.45 59.6 58.51 59.72L58.49 59.72C55.38 59.81 52.64 61.8 51.6 64.73L51.6 64.74C49.95 69.41 44.32 71.24 40.26 68.42C37.73 66.7 34.39 66.61 31.73 68.42L31.72 68.42C27.66 71.23 22.03 69.41 20.39 64.73C19.34 61.79 16.61 59.81 13.5 59.72L13.48 59.72C8.54 59.6 5.07 54.82 6.47 50.08L6.48 50.06C7.36 47.08 6.31 43.86 3.84 41.97L3.82 41.96C-0.1 38.95 -0.1 33.05 3.82 30.04L3.84 30.03C6.31 28.13 7.36 24.91 6.47 21.93L6.47 21.91C5.06 17.17 8.54 12.4 13.48 12.27L13.5 12.27C16.6 12.19 19.35 10.2 20.39 7.26L20.39 7.25C22.03 2.59 27.66 0.76 31.72 3.57L31.73 3.57C34.3 5.34 37.68 5.34 40.26 3.57C44.37 0.73 49.96 2.62 51.6 7.25L51.6 7.26C52.64 10.19 55.38 12.19 58.49 12.27L58.51 12.27C63.45 12.4 66.92 17.17 65.52 21.91L65.51 21.93C64.63 24.91 65.68 28.13 68.15 30.03L68.17 30.04C72.09 33.05 72.09 38.95 68.17 41.96Z" fill="#3EB655" fill-opacity="1.000000" fill-rule="nonzero"/>
		<path id="Vector" d="M55.47 36C55.47 46.75 46.75 55.47 36 55.47C25.24 55.47 16.52 46.75 16.52 36C16.52 25.24 25.24 16.52 36 16.52C46.75 16.52 55.47 25.24 55.47 36Z" fill="#8BD399" fill-opacity="1.000000" fill-rule="evenodd"/>
		<g opacity="0.100000">
			<path id="Vector" d="M50.95 23.53C47.58 20.75 43.27 19.09 38.57 19.09C27.82 19.09 19.09 27.81 19.09 38.57C19.09 43.27 20.76 47.58 23.53 50.95C19.25 47.38 16.52 42.01 16.52 35.99C16.52 25.24 25.24 16.52 36 16.52C42.01 16.52 47.38 19.25 50.95 23.53Z" fill="#000000" fill-opacity="1.000000" fill-rule="nonzero"/>
		</g>
		<path id="Vector" d="M31.36 43.62L27.05 39.04C25.93 37.84 25.98 35.95 27.18 34.82C28.38 33.69 30.27 33.75 31.4 34.95L33.46 37.14L42.2 27.15C43.28 25.91 45.16 25.78 46.4 26.87C47.64 27.95 47.77 29.84 46.68 31.08L35.78 43.54C34.62 44.87 32.57 44.9 31.36 43.62Z" fill="#FFFFFF" fill-opacity="1.000000" fill-rule="nonzero"/>
	</g>
</svg>
