<svg width="40.000000" height="40.000000" viewBox="0 0 40 40" fill="none" xmlns="http://www.w3.org/2000/svg" xmlns:xlink="http://www.w3.org/1999/xlink">
	<desc>
			Created with Pixso.
	</desc>
	<defs>
		<clipPath id="clip13_2159">
			<rect id="Frame" rx="0.000000" width="19.000000" height="19.000000" transform="translate(10.500000 10.500000)" fill="white" fill-opacity="0"/>
		</clipPath>
	</defs>
	<circle id="Ellipse 1" cx="20.000000" cy="20.000000" r="20.000000" fill="#FFFFFF" fill-opacity="1.000000"/>
	<circle id="Ellipse 1" cx="20.000000" cy="20.000000" r="19.500000" stroke="#0B0B0B" stroke-opacity="0.100000" stroke-width="1.000000"/>
	<rect id="Frame" rx="0.000000" width="19.000000" height="19.000000" transform="translate(10.500000 10.500000)" fill="#FFFFFF" fill-opacity="0"/>
	<g clip-path="url(#clip13_2159)">
		<path id="Vector" d="M26.25 20.47L20 26.66L13.75 20.47C13.33 20.07 13.01 19.59 12.79 19.06C12.57 18.52 12.47 17.95 12.49 17.38C12.5 16.8 12.63 16.24 12.88 15.71C13.12 15.19 13.47 14.73 13.91 14.35C14.34 13.97 14.85 13.69 15.39 13.51C15.94 13.34 16.52 13.28 17.09 13.34C17.66 13.4 18.22 13.58 18.72 13.87C19.22 14.15 19.65 14.54 20 15C20.34 14.54 20.78 14.16 21.27 13.88C21.77 13.59 22.33 13.42 22.9 13.36C23.47 13.3 24.04 13.36 24.59 13.53C25.14 13.71 25.64 13.99 26.07 14.37C26.5 14.75 26.85 15.21 27.1 15.73C27.34 16.25 27.47 16.81 27.49 17.39C27.51 17.96 27.4 18.53 27.19 19.06C26.98 19.59 26.65 20.07 26.25 20.48" stroke="#3A3A3A" stroke-opacity="1.000000" stroke-width="1.500000" stroke-linejoin="round" stroke-linecap="round"/>
	</g>
</svg>
